<svg width="31" height="31" viewBox="0 0 31 31" fill="none" xmlns="http://www.w3.org/2000/svg">
<g clip-path="url(#clip0_9_4)">
<path d="M14.0166 0.0666025C9.17288 0.569142 4.92854 3.20293 2.34924 7.30801C-0.599392 11.9943 -0.774978 18.0672 1.89514 22.917C3.10608 25.1209 4.84377 27.01 6.98713 28.4449C8.42815 29.4076 10.6199 30.3279 12.291 30.6609C13.5867 30.9213 14.0772 30.9697 15.5 30.9697C16.9289 30.9697 17.5162 30.9092 18.7211 30.6609C24.0492 29.5469 28.4994 25.5629 30.2129 20.3559C30.7699 18.6727 30.9697 17.383 30.9697 15.5C30.9697 13.6775 30.776 12.3939 30.2674 10.8076C29.5166 8.44629 28.2694 6.39981 26.5014 4.60762C24.0856 2.16152 21.0946 0.653907 17.6494 0.145313C16.9047 0.0363291 14.7553 -0.0121084 14.0166 0.0666025ZM18.0067 5.71563C18.2065 5.8125 18.4789 6.00625 18.6182 6.13945C18.933 6.46035 26.6406 19.8594 26.786 20.3377C26.901 20.7373 26.9131 21.2035 26.8041 21.5607C26.7436 21.7484 24.7637 25.2965 24.6123 25.4781C24.6063 25.4842 22.0573 21.0824 18.9512 15.6998C15.8391 10.3111 13.2416 5.8125 13.1811 5.70352L13.066 5.50371L15.3547 5.52188L17.6494 5.54004L18.0067 5.71563ZM13.7442 13.1871C15.1489 15.6271 16.2871 17.6373 16.275 17.6494C16.2569 17.6676 13.944 17.6736 11.1285 17.6676L6.00627 17.6494L8.58557 13.1871C10.0024 10.7289 11.1649 8.72481 11.1709 8.73691C11.177 8.74297 12.3334 10.7471 13.7442 13.1871ZM19.5385 23.2197C20.2469 24.4488 20.8281 25.4781 20.8281 25.5023C20.8281 25.5689 8.35549 25.5568 7.8469 25.4963C7.28987 25.4236 6.73284 25.1391 6.41799 24.7758C6.28479 24.6184 5.71565 23.692 5.15256 22.7172L4.12932 20.9492L11.1891 20.9613L18.2489 20.9795L19.5385 23.2197Z" fill="black"/>
</g>
<defs>
<clipPath id="clip0_9_4">
<rect width="31" height="31" fill="white"/>
</clipPath>
</defs>
</svg>
