<svg width="29" height="29" viewBox="0 0 29 29" fill="none" xmlns="http://www.w3.org/2000/svg">
<path d="M13.1124 0.0623061C8.58114 0.532423 4.61063 2.99629 2.19774 6.83652C-0.560658 11.2205 -0.724916 16.9016 1.77294 21.4385C2.90575 23.5002 4.53133 25.2674 6.53641 26.6098C7.88446 27.5104 9.93485 28.3713 11.4981 28.6828C12.7102 28.9264 13.169 28.9717 14.5001 28.9717C15.8368 28.9717 16.3862 28.915 17.5134 28.6828C22.4977 27.6406 26.6608 23.9137 28.2638 19.0426C28.7848 17.468 28.9718 16.2615 28.9718 14.5C28.9718 12.7951 28.7905 11.5943 28.3147 10.1104C27.6124 7.90137 26.4456 5.98692 24.7917 4.31035C22.5317 2.02207 19.7337 0.61172 16.5108 0.135939C15.8141 0.0339858 13.8034 -0.0113267 13.1124 0.0623061ZM16.845 5.34688C17.0319 5.4375 17.2868 5.61875 17.4171 5.74336C17.7116 6.04356 24.922 18.5781 25.0579 19.0256C25.1655 19.3994 25.1768 19.8355 25.0749 20.1697C25.0182 20.3453 23.1661 23.6645 23.0245 23.8344C23.0188 23.84 20.6343 19.7223 17.7286 14.6869C14.8173 9.6459 12.3874 5.4375 12.3307 5.33555L12.2231 5.14863L14.3641 5.16563L16.5108 5.18262L16.845 5.34688ZM12.8575 12.3363C14.1716 14.6189 15.2364 16.4994 15.2251 16.5107C15.2081 16.5277 13.0444 16.5334 10.4106 16.5277L5.61883 16.5107L8.03172 12.3363C9.35712 10.0367 10.4446 8.16192 10.4503 8.17324C10.4559 8.17891 11.5378 10.0537 12.8575 12.3363ZM18.278 21.7217C18.9407 22.8715 19.4845 23.8344 19.4845 23.857C19.4845 23.9193 7.81649 23.908 7.34071 23.8514C6.81962 23.7834 6.29852 23.5172 6.00399 23.1773C5.87938 23.0301 5.34696 22.1635 4.8202 21.2516L3.86297 19.5977L10.4673 19.609L17.0716 19.626L18.278 21.7217Z" fill="black"/>
</svg>
