<svg width="31" height="31" viewBox="0 0 31 31" fill="none" xmlns="http://www.w3.org/2000/svg">
<g clip-path="url(#clip0_12_12)">
<path d="M15.5 31C24.0604 31 31 24.0604 31 15.5C31 6.93959 24.0604 0 15.5 0C6.93959 0 0 6.93959 0 15.5C0 24.0604 6.93959 31 15.5 31Z" fill="#FF2449"/>
<path d="M8.47712 7.10512C7.64833 7.59457 6.01544 9.46023 6 9.9496V10.7594C6 11.786 6.96488 12.6884 7.84086 12.6884C8.89267 12.6884 9.76912 11.8213 9.76912 10.7923C9.76912 11.8213 10.6155 12.6884 11.6675 12.6884C12.7194 12.6884 13.5386 11.8213 13.5386 10.7923C13.5386 11.8213 14.4385 12.6884 15.4904 12.6884H15.5096C16.5615 12.6884 17.4614 11.8213 17.4614 10.7923C17.4614 11.8213 18.2807 12.6884 19.3325 12.6884C20.3845 12.6884 21.2309 11.8213 21.2309 10.7923C21.2309 11.8213 22.1074 12.6884 23.1591 12.6884C24.0351 12.6884 25 11.7862 25 10.7594V9.9496C24.9846 9.46015 23.3517 7.59441 22.5231 7.10512C19.9472 7.0152 18.1614 6.99961 15.4999 7.00001C12.8385 7.00024 9.21045 7.04158 8.47712 7.10512ZM13.5253 12.2049C13.4247 12.3793 13.3001 12.5388 13.1552 12.6789C12.7581 13.065 12.2138 13.3045 11.6138 13.3045C11.0366 13.305 10.4817 13.0801 10.0691 12.6786C9.92524 12.5385 9.81591 12.3886 9.71577 12.2141C9.61562 12.3889 9.47589 12.539 9.33173 12.6793C8.91911 13.0805 8.36415 13.3052 7.78703 13.3047C7.71475 13.3047 7.63946 13.2849 7.57866 13.2641C7.49403 14.1399 7.45841 14.9768 7.44582 15.5871L7.44566 15.5906C7.44408 15.9005 7.4425 16.1553 7.44099 16.5094C7.45722 18.347 7.25796 22.4654 8.25554 23.4772C9.8015 23.8358 12.646 23.999 15.4998 24C18.3536 23.999 21.1986 23.8358 22.7445 23.4772C23.7421 22.4653 23.5429 18.3469 23.5592 16.5093C23.5574 16.1553 23.556 15.9005 23.5545 15.5905L23.5542 15.5871C23.5417 14.9766 23.506 14.1397 23.4214 13.2638C23.3606 13.2846 23.2854 13.3045 23.2131 13.3045C22.6359 13.305 22.081 13.0804 21.6683 12.6791C21.5242 12.5388 21.3848 12.3891 21.2847 12.2142C21.1845 12.3887 21.0748 12.5383 20.9309 12.6785C20.5184 13.0799 19.9635 13.3048 19.3863 13.3041C18.7864 13.3041 18.242 13.0647 17.8449 12.6786C17.7 12.5386 17.5754 12.379 17.4748 12.2046C17.3753 12.3788 17.2519 12.5383 17.108 12.6786C16.6954 13.0801 16.1405 13.3049 15.5633 13.3042C15.5424 13.3042 15.5215 13.3034 15.5006 13.3027C15.4797 13.3034 15.4582 13.3042 15.4371 13.3042C14.8599 13.3049 14.3048 13.0801 13.8922 12.6787C13.7485 12.5384 13.6248 12.379 13.5253 12.2049ZM11.939 14.2451L11.94 14.2458C12.5682 14.2471 13.1263 14.2458 13.8177 14.9964C14.362 14.9397 14.9306 14.9113 15.4998 14.9122C16.0689 14.9114 16.638 14.9397 17.1824 14.9964C17.8738 14.2457 18.4319 14.247 19.06 14.2458H19.0612C19.358 14.2458 20.5451 14.2451 21.3724 16.556L22.261 19.7264C22.9195 22.085 22.0502 22.1427 20.9658 22.1447C19.3577 22.0852 18.4672 20.9236 18.4672 19.7622C17.5771 19.9073 16.5387 19.9799 15.5002 19.9799C14.4617 19.9799 13.4227 19.9073 12.5326 19.7622C12.5326 20.9236 11.6421 22.0852 10.0341 22.1447C8.94967 22.1427 8.08042 22.085 8.73893 19.7264L9.62773 16.5561C10.455 14.2452 11.6421 14.2451 11.939 14.2451ZM15.4998 16.0612C15.4983 16.0627 13.8069 17.6082 13.5028 18.1577L14.6104 18.1136V19.0743C14.6104 19.1192 15.0548 19.1009 15.4998 19.0804C15.9446 19.1009 16.3895 19.1192 16.3895 19.0743V18.1136L17.4971 18.1577C17.193 17.6082 15.4998 16.0612 15.4998 16.0612Z" fill="white"/>
</g>
<defs>
<clipPath id="clip0_12_12">
<rect width="31" height="31" fill="white"/>
</clipPath>
</defs>
</svg>
