<svg width="35" height="35" viewBox="0 0 35 35" fill="none" xmlns="http://www.w3.org/2000/svg">
<path d="M17.5 32.0834C25.5541 32.0834 32.0833 25.5542 32.0833 17.5001C32.0833 9.44593 25.5541 2.91675 17.5 2.91675C9.44581 2.91675 2.91663 9.44593 2.91663 17.5001C2.91663 25.5542 9.44581 32.0834 17.5 32.0834Z" fill="#FF2449"/>
<path d="M11.0316 9.5766C10.2682 10.0298 8.76422 11.7575 8.75 12.2107V12.9607C8.75 13.9113 9.63871 14.747 10.4455 14.747C11.4143 14.747 12.2216 13.944 12.2216 12.9911C12.2216 13.944 13.0011 14.747 13.97 14.747C14.9389 14.747 15.6935 13.944 15.6935 12.9911C15.6935 13.944 16.5223 14.747 17.4912 14.747H17.5088C18.4777 14.747 19.3066 13.944 19.3066 12.9911C19.3066 13.944 20.0611 14.747 21.03 14.747C21.9989 14.747 22.7784 13.944 22.7784 12.9911C22.7784 13.944 23.5858 14.747 24.5545 14.747C25.3613 14.747 26.25 13.9115 26.25 12.9607V12.2107C26.2358 11.7575 24.7318 10.0297 23.9687 9.5766C21.5961 9.49333 19.9513 9.47889 17.4999 9.47925C15.0486 9.47947 11.707 9.51775 11.0316 9.5766ZM15.6812 14.2992C15.5886 14.4607 15.4738 14.6084 15.3403 14.7382C14.9745 15.0957 14.4732 15.3175 13.9206 15.3175C13.389 15.318 12.8779 15.1097 12.4978 14.7379C12.3654 14.6081 12.2647 14.4693 12.1724 14.3077C12.0802 14.4696 11.9515 14.6086 11.8187 14.7385C11.4387 15.1101 10.9275 15.3181 10.3959 15.3177C10.3294 15.3177 10.26 15.2993 10.204 15.2801C10.1261 16.0911 10.0933 16.8662 10.0817 17.4313L10.0815 17.4345C10.0801 17.7215 10.0786 17.9575 10.0772 18.2854C10.0922 19.9871 9.90865 23.8009 10.8275 24.7379C12.2514 25.0699 14.8714 25.2211 17.4999 25.222C20.1283 25.2211 22.7487 25.0699 24.1725 24.7379C25.0914 23.8008 24.9079 19.987 24.9229 18.2853C24.9213 17.9575 24.92 17.7215 24.9186 17.4345L24.9183 17.4313C24.9069 16.8659 24.874 16.0909 24.796 15.2798C24.74 15.2991 24.6708 15.3175 24.6041 15.3175C24.0726 15.318 23.5614 15.11 23.1814 14.7384C23.0486 14.6084 22.9202 14.4698 22.828 14.3079C22.7357 14.4695 22.6346 14.608 22.5022 14.7378C22.1222 15.1095 21.6111 15.3178 21.0795 15.3172C20.5269 15.3172 20.0255 15.0954 19.6598 14.7379C19.5263 14.6082 19.4115 14.4604 19.3189 14.299C19.2272 14.4603 19.1136 14.608 18.9811 14.7379C18.601 15.1097 18.0899 15.3178 17.5583 15.3173C17.539 15.3173 17.5198 15.3165 17.5005 15.3159C17.4813 15.3165 17.4615 15.3173 17.442 15.3173C16.9104 15.3178 16.3992 15.1097 16.0191 14.738C15.8868 14.6081 15.7728 14.4604 15.6812 14.2992ZM14.2201 16.1885L14.2211 16.1892C14.7997 16.1904 15.3137 16.1892 15.9505 16.8843C16.4518 16.8317 16.9756 16.8055 17.4998 16.8063C18.024 16.8056 18.5482 16.8317 19.0496 16.8843C19.6864 16.1891 20.2004 16.1903 20.779 16.1892H20.78C21.0534 16.1892 22.1468 16.1885 22.9088 18.3286L23.7272 21.2645C24.3337 23.4486 23.5331 23.5021 22.5343 23.5039C21.0532 23.4488 20.233 22.3732 20.233 21.2977C19.4131 21.432 18.4567 21.4993 17.5001 21.4993C16.5436 21.4993 15.5867 21.432 14.7669 21.2977C14.7669 22.3732 13.9467 23.4488 12.4656 23.5039C11.4668 23.5021 10.6662 23.4487 11.2727 21.2645L12.0913 18.3286C12.8533 16.1886 13.9467 16.1885 14.2201 16.1885ZM17.4998 17.8704C17.4984 17.8717 15.9405 19.303 15.6605 19.8118L16.6806 19.7709V20.6606C16.6806 20.7022 17.09 20.6852 17.4998 20.6663C17.9095 20.6852 18.3193 20.7022 18.3193 20.6606V19.7709L19.3395 19.8118C19.0593 19.303 17.4998 17.8704 17.4998 17.8704Z" fill="white"/>
</svg>
