<svg width="40" height="40" viewBox="0 0 40 40" fill="none" xmlns="http://www.w3.org/2000/svg">
<path d="M16.165 25.5737V14.4274L25.9638 20.0012L16.165 25.5737ZM37.96 10.9187C37.5175 9.29244 36.2675 8.03494 34.6788 7.58994L34.645 7.58244C30.6538 7.07494 26.0375 6.78494 21.3525 6.78494C20.8763 6.78494 20.4013 6.78744 19.9275 6.79369L20 6.79244C19.5975 6.78744 19.1238 6.78369 18.6475 6.78369C13.9625 6.78369 9.34376 7.07369 4.81001 7.63494L5.35251 7.57994C3.73126 8.03369 2.48126 9.28994 2.04751 10.8837L2.04 10.9162C1.54 13.5524 1.255 16.5862 1.255 19.6862C1.255 19.7962 1.255 19.9062 1.25625 20.0149V19.9974C1.25625 20.0899 1.255 20.1999 1.255 20.3099C1.255 23.4099 1.54125 26.4424 2.0875 29.3837L2.04 29.0787C2.48251 30.7049 3.73251 31.9624 5.32126 32.4074L5.35501 32.4149C9.34626 32.9224 13.9625 33.2124 18.6475 33.2124C19.1225 33.2124 19.5975 33.2099 20.0725 33.2037L20 33.2049C20.4025 33.2099 20.8775 33.2137 21.3525 33.2137C26.0388 33.2137 30.6563 32.9237 35.19 32.3624L34.6475 32.4174C36.27 31.9649 37.52 30.7074 37.955 29.1137L37.9625 29.0812C38.4613 26.4449 38.7463 23.4112 38.7463 20.3124C38.7463 20.2024 38.7463 20.0924 38.745 19.9837V19.9999C38.745 19.9074 38.7463 19.7974 38.7463 19.6874C38.7463 16.5874 38.46 13.5549 37.9138 10.6137L37.96 10.9187Z" fill="black"/>
</svg>
